#N canvas 160 414 952 593 10;
#X obj 764 73 table one 1.5876e+07;
#X obj 764 92 table two 1.5876e+07;
#X obj 764 112 table three 1.5876e+07;
#X obj 764 132 table four 1.5876e+07;
#X obj 391 252 cyclone/poke~;
#N canvas 705 152 1020 812 longvarispeed 1;
#X obj 629 392 metro 100;
#X obj 251 396 phasor~;
#X obj 629 463 snapshot~;
#X floatatom 251 285 5 0 0 0 - - -, f 5;
#X obj 574 566 +;
#X obj 605 565 f;
#X obj 520 535 t f f;
#X floatatom 685 563 8 0 0 0 - - -, f 8;
#X obj 574 601 t f b;
#X obj 607 630 f;
#X obj 574 630 -;
#X obj 520 647 -;
#X obj 629 373 tgl 15 0 empty empty empty 17 7 0 10 -262144 -1 -1 0
1;
#X obj 251 422 -~ 0.5;
#X obj 520 707 + 0.5;
#X obj 746 385 samplerate~;
#X obj 714 412 /;
#X obj 714 365 t f b;
#X obj 629 496 +;
#X obj 520 687 / 10000;
#X obj 251 447 *~ 10000;
#X obj 714 477 * 10000;
#X text 292 283 playback speed \, samples/sec;
#X text 684 576 new onset is phase plus old onset;
#X obj 520 281 t b f;
#X text 584 687 convert phase back to range 0-1;
#X text 254 472 convert phase to;
#X text 254 486 range +/-5000;
#X obj 251 348 / 10000;
#X text 255 325 cycles/sec;
#X text 245 315 convert to;
#X text 306 664 GOOD;
#X text 400 25 VARIABLE SPEED PLAYBACK FROM LONG TABLES;
#X msg 520 326 0;
#X obj 252 660 outlet~;
#X obj 251 628 tabread4~ one;
#X obj 251 52 inlet;
#X obj 495 85 inlet phase;
#X floatatom 672 374 5 0 0 0 - - -, f 5;
#X obj 682 760 outlet;
#X obj 667 725 change;
#X msg 274 148 44100;
#X msg 317 148 1;
#X msg 294 198 0;
#X msg 251 198 0;
#X obj 275 595 tabwrite4~ one;
#X obj 74 96 inlet~;
#X obj 251 74 sel 0 1 2;
#X obj 274 126 t b b b, f 8;
#X obj 251 176 t b b b, f 8;
#X obj 400 183 spigot;
#X obj 418 141 tgl 15 0 empty empty empty 17 7 0 10 -262144 -1 -1 0
1;
#X msg 418 121 1;
#X msg 362 152 start;
#X msg 346 214 stop;
#X connect 0 0 2 0;
#X connect 1 0 13 0;
#X connect 2 0 18 0;
#X connect 3 0 28 0;
#X connect 4 0 5 0;
#X connect 4 0 8 0;
#X connect 4 0 7 0;
#X connect 4 0 35 1;
#X connect 4 0 40 0;
#X connect 4 0 45 1;
#X connect 5 0 4 1;
#X connect 6 0 11 0;
#X connect 6 1 4 0;
#X connect 8 0 9 1;
#X connect 8 0 10 0;
#X connect 8 1 9 0;
#X connect 9 0 10 1;
#X connect 10 0 11 1;
#X connect 11 0 19 0;
#X connect 12 0 0 0;
#X connect 13 0 20 0;
#X connect 14 0 1 1;
#X connect 15 0 16 1;
#X connect 16 0 21 0;
#X connect 17 0 16 0;
#X connect 17 1 15 0;
#X connect 18 0 6 0;
#X connect 19 0 14 0;
#X connect 20 0 2 0;
#X connect 20 0 35 0;
#X connect 21 0 18 1;
#X connect 24 0 33 0;
#X connect 24 1 9 1;
#X connect 24 1 4 1;
#X connect 28 0 1 0;
#X connect 28 0 17 0;
#X connect 33 0 6 0;
#X connect 35 0 34 0;
#X connect 36 0 47 0;
#X connect 37 0 24 0;
#X connect 38 0 0 1;
#X connect 40 0 39 0;
#X connect 41 0 3 0;
#X connect 42 0 12 0;
#X connect 43 0 12 0;
#X connect 44 0 3 0;
#X connect 44 0 51 0;
#X connect 46 0 45 0;
#X connect 47 0 49 0;
#X connect 47 1 48 0;
#X connect 47 2 52 0;
#X connect 48 0 41 0;
#X connect 48 1 42 0;
#X connect 48 2 53 0;
#X connect 49 0 44 0;
#X connect 49 1 43 0;
#X connect 49 2 54 0;
#X connect 50 0 45 0;
#X connect 51 0 50 1;
#X connect 52 0 51 0;
#X connect 53 0 50 0;
#X connect 54 0 50 0;
#X restore 73 291 pd longvarispeed;
#X obj 336 119 soundfiler;
#X floatatom 447 206 12 0 0 0 - - -, f 12;
#X obj 63 431 dac~;
#X obj 164 362 vsl 15 128 0.001 1 1 0 empty empty empty 0 -9 0 10 -262144
-1 -1 12700 1;
#X obj 72 392 *~;
#X obj 507 153 openpanel;
#X obj 505 134 bng 15 250 50 0 empty empty empty 17 7 0 10 -262144
-1 -1;
#X text 339 20 6 min : 360s \, 1.5876e+07 samples;
#N canvas 551 272 1151 646 clock 0;
#X obj 443 106 div;
#X obj 443 144 div 4;
#X floatatom 443 297 5 0 0 0 - - -, f 5;
#X obj 531 144 mod 4;
#X obj 531 163 + 1;
#X floatatom 531 297 5 0 0 0 - - -, f 5;
#X obj 616 144 mod;
#X floatatom 616 297 5 0 0 0 - - -, f 5;
#X obj 616 163 / 44.1;
#X obj 443 125 t f f, f 13;
#X obj 443 87 t f f f, f 50;
#X obj 790 115 / 44100;
#X obj 790 134 t f f f, f 23;
#X obj 790 153 div 60;
#X floatatom 790 293 5 0 0 0 - - -, f 5;
#X floatatom 869 293 5 0 0 0 - - -, f 5;
#X obj 869 153 mod 60;
#X floatatom 948 293 12 0 0 0 - - -, f 12;
#X obj 616 313 * 44.1;
#X obj 531 313 - 1;
#X obj 531 332 *;
#X obj 531 439 +;
#X obj 443 475 +;
#X obj 443 426 *;
#X obj 470 380 inv;
#X obj 470 399 * 44100;
#X obj 443 163 + 1;
#X obj 443 399 - 1;
#X obj 616 422 t b f;
#X obj 531 458 t b f;
#X obj 741 180 >= 6;
#X obj 741 202 sel 1;
#X msg 741 224 0;
#X obj 741 243 s play;
#X obj 623 242 r periodsamples;
#X obj 470 361 r periodseconds;
#X msg 443 182 set \$1;
#X msg 531 182 set \$1;
#X msg 616 182 set \$1;
#X obj 948 153 expr 1000*($f1-int($f1));
#X obj 948 351 t b f;
#X obj 869 368 +;
#X obj 948 309 / 1000;
#X obj 790 328 * 60;
#X obj 790 404 +;
#X obj 869 387 t b f;
#X floatatom 790 426 5 0 0 0 - - -, f 5;
#X obj 790 445 * 44100;
#X msg 790 172 set \$1;
#X msg 869 172 set \$1;
#X msg 948 172 set \$1;
#X obj 443 201 s mesure-s;
#X obj 443 278 r mesure;
#X obj 531 201 s temps-s;
#X obj 531 278 r temps;
#X obj 616 201 s ms1-s;
#X obj 616 278 r ms1;
#X obj 790 191 s min-s;
#X obj 869 191 s sec-s;
#X obj 948 191 s ms2-s;
#X obj 790 274 r min;
#X obj 869 274 r sec;
#X obj 948 274 r ms2;
#X obj 443 539 change;
#X floatatom 111 240 5 0 0 2 bar mesure-s mesure, f 5;
#X floatatom 151 240 5 0 0 2 beat temps-s temps, f 5;
#X floatatom 192 240 5 0 0 2 ms ms1-s ms1, f 5;
#X obj 109 162 bng 50 250 50 0 empty empty play 13 23 0 10 -262144
-1 -1;
#X obj 165 162 bng 50 250 50 0 empty empty stop 13 23 0 10 -262144
-1 -1;
#X obj 221 162 bng 50 250 50 0 empty empty rew 16 23 0 10 -262144 -1
-1;
#X floatatom 111 274 5 0 0 2 min min-s min, f 5;
#X floatatom 151 274 5 0 0 2 sec sec-s sec, f 5;
#X floatatom 192 274 5 0 0 2 ms ms2-s ms2, f 5;
#X floatatom 109 141 5 0 0 2 bpm - -, f 5;
#X floatatom 36 373 5 0 0 0 - - -, f 5;
#X obj 36 354 expr 60/$f1;
#X obj 36 408 * 44100;
#X obj 36 427 s periodsamples;
#X obj 46 389 s periodseconds;
#X obj 303 266 s play;
#X msg 303 242 1;
#X msg 346 242 0;
#X obj 443 68 r clock-s;
#X obj 443 559 s clock;
#X obj 300 219 s clock;
#X connect 0 0 9 0;
#X connect 1 0 26 0;
#X connect 2 0 27 0;
#X connect 3 0 4 0;
#X connect 4 0 37 0;
#X connect 5 0 19 0;
#X connect 6 0 8 0;
#X connect 7 0 18 0;
#X connect 8 0 38 0;
#X connect 9 0 1 0;
#X connect 9 1 3 0;
#X connect 10 0 0 0;
#X connect 10 1 6 0;
#X connect 10 2 11 0;
#X connect 11 0 12 0;
#X connect 12 0 13 0;
#X connect 12 1 16 0;
#X connect 12 2 39 0;
#X connect 13 0 48 0;
#X connect 13 0 30 0;
#X connect 14 0 43 0;
#X connect 15 0 41 0;
#X connect 16 0 49 0;
#X connect 17 0 42 0;
#X connect 18 0 28 0;
#X connect 19 0 20 0;
#X connect 20 0 21 0;
#X connect 21 0 29 0;
#X connect 22 0 63 0;
#X connect 23 0 22 0;
#X connect 24 0 25 0;
#X connect 25 0 23 1;
#X connect 26 0 36 0;
#X connect 27 0 23 0;
#X connect 28 0 21 0;
#X connect 28 1 21 1;
#X connect 29 0 22 0;
#X connect 29 1 22 1;
#X connect 30 0 31 0;
#X connect 31 0 32 0;
#X connect 32 0 33 0;
#X connect 34 0 6 1;
#X connect 34 0 0 1;
#X connect 34 0 20 1;
#X connect 35 0 24 0;
#X connect 36 0 51 0;
#X connect 37 0 53 0;
#X connect 38 0 55 0;
#X connect 39 0 50 0;
#X connect 40 0 41 0;
#X connect 40 1 41 1;
#X connect 41 0 45 0;
#X connect 42 0 40 0;
#X connect 43 0 44 0;
#X connect 44 0 46 0;
#X connect 45 0 44 0;
#X connect 45 1 44 1;
#X connect 46 0 47 0;
#X connect 47 0 63 0;
#X connect 48 0 57 0;
#X connect 49 0 58 0;
#X connect 50 0 59 0;
#X connect 52 0 2 0;
#X connect 54 0 5 0;
#X connect 56 0 7 0;
#X connect 60 0 14 0;
#X connect 61 0 15 0;
#X connect 62 0 17 0;
#X connect 63 0 83 0;
#X connect 67 0 80 0;
#X connect 68 0 81 0;
#X connect 69 0 84 0;
#X connect 73 0 75 0;
#X connect 74 0 76 0;
#X connect 74 0 78 0;
#X connect 75 0 74 0;
#X connect 76 0 77 0;
#X connect 80 0 79 0;
#X connect 81 0 79 0;
#X connect 82 0 10 0;
#X coords 0 -1 1 1 180 198 1 100 100;
#X restore 61 42 pd clock;
#X msg 336 81 read ./6minde440.wav one;
#X msg 446 101 read ./6min120bpmclicktrack.wav one;
#X msg 506 175 read \$1 one;
#X obj 182 272 r clock;
#X obj 182 310 s clock-s;
#X obj 516 439 tabwrite~;
#X obj 307 206 vradio 15 1 0 3 empty play empty 0 -8 0 10 -262144 -1
-1 0;
#X text 324 221 play;
#X text 323 205 stop;
#X text 324 236 rec;
#X obj 34 254 adc~ 1 2;
#X floatatom 580 271 5 0 0 0 - - -, f 5;
#X floatatom 336 161 12 0 0 0 - - -, f 12;
#X floatatom 336 141 12 0 0 0 - - -, f 12;
#X floatatom 336 141 12 0 0 0 - - -, f 12;
#X floatatom 336 141 12 0 0 0 - - -, f 12;
#X text 463 470 tabread~ /tabwrite~;
#X obj 467 375 tabread~;
#X connect 5 0 10 0;
#X connect 5 1 19 0;
#X connect 6 0 7 0;
#X connect 9 0 10 1;
#X connect 10 0 8 0;
#X connect 10 0 8 1;
#X connect 11 0 17 0;
#X connect 12 0 11 0;
#X connect 15 0 6 0;
#X connect 16 0 6 0;
#X connect 17 0 6 0;
#X connect 18 0 5 2;
#X connect 21 0 5 1;
#X connect 25 0 5 0;
#X connect 25 1 5 0;
