#N canvas 625 255 1095 622 10;
#X obj 336 119 soundfiler;
#X floatatom 336 139 12 0 0 0 - - -, f 12;
#X obj 162 552 dac~;
#X obj 47 215 vsl 15 128 0.001 1 1 0 empty empty empty 0 -9 0 10 -262144
-1 -1 0 1;
#X obj 32 439 *~;
#X obj 507 153 openpanel;
#X obj 505 134 bng 15 250 50 0 empty empty empty 17 7 0 10 -262144
-1 -1;
#X text 339 20 6 min : 360s \, 1.5876e+07 samples;
#N canvas 366 143 1247 937 clock 0;
#X obj 549 107 div;
#X obj 549 145 div 4;
#X floatatom 549 298 5 0 0 0 - - -, f 5;
#X obj 637 145 mod 4;
#X obj 637 164 + 1;
#X floatatom 637 298 5 0 0 0 - - -, f 5;
#X obj 722 145 mod;
#X floatatom 722 298 5 0 0 0 - - -, f 5;
#X obj 722 164 / 44.1;
#X obj 549 126 t f f, f 13;
#X obj 549 88 t f f f, f 50;
#X obj 896 116 / 44100;
#X obj 896 135 t f f f, f 23;
#X obj 896 154 div 60;
#X floatatom 896 294 5 0 0 0 - - -, f 5;
#X floatatom 975 334 5 0 0 0 - - -, f 5;
#X obj 975 154 mod 60;
#X floatatom 1054 294 12 0 0 0 - - -, f 12;
#X obj 722 314 * 44.1;
#X obj 637 314 - 1;
#X obj 637 333 *;
#X obj 637 440 +;
#X obj 549 476 +;
#X obj 549 427 *;
#X obj 576 381 inv;
#X obj 576 400 * 44100;
#X obj 549 164 + 1;
#X obj 549 400 - 1;
#X obj 722 423 t b f;
#X obj 637 459 t b f;
#X obj 729 243 r periodsamples;
#X obj 576 362 r periodseconds;
#X msg 549 183 set \$1;
#X msg 637 183 set \$1;
#X msg 722 183 set \$1;
#X obj 1054 154 expr 1000*($f1-int($f1));
#X obj 1054 382 t b f;
#X obj 975 399 +;
#X obj 1054 310 / 1000;
#X obj 896 329 * 60;
#X obj 896 435 +;
#X obj 975 418 t b f;
#X floatatom 896 457 5 0 0 0 - - -, f 5;
#X obj 896 476 * 44100;
#X msg 896 173 set \$1;
#X msg 975 173 set \$1;
#X msg 1054 173 set \$1;
#X obj 722 202 s ms1-s;
#X obj 722 279 r ms1;
#X obj 896 192 s min-s;
#X obj 975 192 s sec-s;
#X obj 1054 192 s ms2-s;
#X obj 896 275 r min;
#X obj 975 275 r sec;
#X obj 1054 275 r ms2;
#X obj 549 540 change;
#X obj 109 117 bng 50 250 50 0 empty empty play 13 23 0 10 -204786
-1 -1;
#X obj 165 117 bng 50 250 50 0 empty empty stop 13 23 0 10 -261234
-1 -1;
#X obj 221 117 bng 50 250 50 0 empty empty rew 16 23 0 10 -203904 -1
-1;
#X floatatom 346 173 5 0 0 1 bpm - -, f 5;
#X floatatom 346 236 5 0 0 0 - - -, f 5;
#X obj 346 217 expr 60/$f1;
#X obj 346 271 * 44100;
#X obj 346 290 s periodsamples;
#X obj 356 252 s periodseconds;
#X obj 549 11 r clock-s;
#X obj 549 560 s clock;
#X obj 450 354 f;
#X floatatom 808 286 5 0 0 0 - - -, f 5;
#X obj 808 305 / 44.1;
#X floatatom 808 327 5 0 0 0 - - -, f 5;
#X obj 350 153 nbx 5 14 0 999.99 0 0 ms2 ms2-s ms 0 -8 0 10 -262144
-1 -1 0 256;
#X obj 318 153 nbx 2 14 0 59 0 0 sec sec-s sec 0 -8 0 10 -262144 -1
-1 0 256;
#X obj 278 153 nbx 3 14 0 6 0 0 min min-s min 0 -8 0 10 -262144 -1
-1 0 256;
#X obj 350 123 nbx 5 14 0 500 0 0 ms1 ms1-s ms 0 -8 0 10 -262144 -1
-1 0 256;
#X obj 318 123 nbx 2 14 1 4 0 0 beat beat-s beat 0 -8 0 10 -262144
-1 -1 1 256;
#X obj 278 123 nbx 3 14 1 191 0 0 bar bar-s bar 0 -8 0 10 -262144 -1
-1 1 256;
#X obj 549 202 s bar-s;
#X obj 549 279 r bar;
#X obj 637 279 r beat;
#X obj 637 202 s beat-s;
#X msg 806 345 \; ms1-s range 0 \$1;
#X msg 377 402 0;
#X obj 109 715 phasor~;
#X obj 127 512 r length;
#X obj 109 550 f;
#X obj 109 754 *~;
#X obj 401 770 snapshot~;
#X obj 401 695 metro 100;
#X obj 401 678 tgl 15 0 empty empty empty 17 7 0 10 -262144 -1 -1 0
1;
#X obj 127 531 expr 1000/($f1/44.1);
#X obj 401 814 s clock-s;
#X msg 132 421 1;
#X msg 263 411 0;
#X msg 240 373 0;
#X obj 345 345 t b b;
#X msg 345 364 0;
#X obj 304 582 r clock;
#X obj 109 814 outlet~;
#X obj 304 620 t b f;
#X obj 304 601 /;
#X obj 549 42 moses 1.5876e+07;
#X obj 150 737 r length;
#X obj 359 584 r length;
#X obj 240 392 s autosnap;
#X obj 132 442 s autosnap;
#X obj 401 659 r autosnap;
#X obj 155 696 r phase;
#X obj 336 639 s phase;
#X obj 377 421 s phase;
#X obj 126 672 r frequency;
#X obj 263 430 s frequency;
#X obj 345 383 s clock-s;
#X obj 112 173 hsl 226 15 0 1 0 0 empty empty empty -2 -8 0 10 -262144
-1 -1 0 1;
#X obj 19 107 r clock-s;
#X obj 19 155 /;
#X obj 26 127 r length;
#X msg 19 174 set \$1;
#X obj 19 226 s clock;
#X obj 19 206 *;
#X obj 147 174 cnv 1 1 13 empty clock-marker empty 20 12 0 14 -228856
-66577 0;
#X floatatom 717 630 3 1 20 0 - - -, f 3;
#X text 747 630 selectable size;
#X msg 717 658 \; clock-marker size \$1;
#X obj 182 174 cnv 1 1 13 empty clock-marker empty 20 12 0 14 -228856
-66577 0;
#X obj 218 174 cnv 1 1 13 empty clock-marker empty 20 12 0 14 -228856
-66577 0;
#X obj 253 174 cnv 1 1 13 empty clock-marker empty 20 12 0 14 -228856
-66577 0;
#X obj 289 174 cnv 1 1 13 empty clock-marker empty 20 12 0 14 -228856
-66577 0;
#X obj 324 174 cnv 1 1 13 empty clock-marker empty 20 12 0 14 -228856
-66577 0;
#X obj 109 402 t b b b;
#X obj 240 354 t b b b;
#X msg 286 373 0;
#X msg 174 419 1;
#X obj 286 482 s state;
#X obj 125 302 f;
#X obj 125 335 s;
#X obj 109 195 bng 15 250 50 0 empty empty pos>punch_in 17 7 0 10 -262144
-1 -1;
#X obj 219 195 bng 15 250 50 0 empty empty pos>punch_out 17 7 0 10
-262144 -1 -1;
#X obj 125 267 t b b;
#X obj 122 225 t b b;
#X msg 154 244 symbol punch_in_s;
#X msg 157 286 symbol punch_out_s;
#X connect 0 0 9 0;
#X connect 1 0 26 0;
#X connect 2 0 27 0;
#X connect 3 0 4 0;
#X connect 4 0 33 0;
#X connect 5 0 19 0;
#X connect 6 0 8 0;
#X connect 7 0 18 0;
#X connect 8 0 34 0;
#X connect 9 0 1 0;
#X connect 9 1 3 0;
#X connect 10 0 0 0;
#X connect 10 1 6 0;
#X connect 10 2 11 0;
#X connect 11 0 12 0;
#X connect 12 0 13 0;
#X connect 12 1 16 0;
#X connect 12 2 35 0;
#X connect 13 0 44 0;
#X connect 14 0 39 0;
#X connect 15 0 37 0;
#X connect 16 0 45 0;
#X connect 17 0 38 0;
#X connect 18 0 28 0;
#X connect 19 0 20 0;
#X connect 20 0 21 0;
#X connect 21 0 29 0;
#X connect 22 0 55 0;
#X connect 23 0 22 0;
#X connect 24 0 25 0;
#X connect 25 0 23 1;
#X connect 26 0 32 0;
#X connect 27 0 23 0;
#X connect 28 0 21 0;
#X connect 28 1 21 1;
#X connect 29 0 22 0;
#X connect 29 1 22 1;
#X connect 30 0 6 1;
#X connect 30 0 0 1;
#X connect 30 0 20 1;
#X connect 30 0 68 0;
#X connect 31 0 24 0;
#X connect 32 0 77 0;
#X connect 33 0 80 0;
#X connect 34 0 47 0;
#X connect 35 0 46 0;
#X connect 36 0 37 0;
#X connect 36 1 37 1;
#X connect 37 0 41 0;
#X connect 38 0 36 0;
#X connect 39 0 40 0;
#X connect 40 0 42 0;
#X connect 41 0 40 0;
#X connect 41 1 40 1;
#X connect 42 0 43 0;
#X connect 43 0 55 0;
#X connect 44 0 49 0;
#X connect 45 0 50 0;
#X connect 46 0 51 0;
#X connect 48 0 7 0;
#X connect 52 0 14 0;
#X connect 53 0 15 0;
#X connect 54 0 17 0;
#X connect 55 0 66 0;
#X connect 55 0 67 0;
#X connect 56 0 129 0;
#X connect 57 0 130 0;
#X connect 58 0 95 0;
#X connect 59 0 61 0;
#X connect 60 0 62 0;
#X connect 60 0 64 0;
#X connect 61 0 60 0;
#X connect 62 0 63 0;
#X connect 65 0 101 0;
#X connect 67 0 10 0;
#X connect 68 0 69 0;
#X connect 69 0 70 0;
#X connect 70 0 81 0;
#X connect 78 0 2 0;
#X connect 79 0 5 0;
#X connect 82 0 109 0;
#X connect 83 0 86 0;
#X connect 84 0 90 0;
#X connect 85 0 83 0;
#X connect 86 0 87 0;
#X connect 86 0 98 0;
#X connect 87 0 91 0;
#X connect 88 0 87 0;
#X connect 89 0 88 0;
#X connect 90 0 85 1;
#X connect 92 0 105 0;
#X connect 93 0 111 0;
#X connect 94 0 104 0;
#X connect 95 0 96 0;
#X connect 95 1 82 0;
#X connect 96 0 112 0;
#X connect 97 0 100 0;
#X connect 99 0 87 0;
#X connect 99 1 108 0;
#X connect 100 0 99 0;
#X connect 101 0 10 0;
#X connect 101 1 57 0;
#X connect 102 0 86 1;
#X connect 103 0 100 1;
#X connect 106 0 89 0;
#X connect 107 0 83 1;
#X connect 110 0 83 0;
#X connect 113 0 119 0;
#X connect 113 0 134 1;
#X connect 114 0 115 0;
#X connect 115 0 117 0;
#X connect 116 0 115 1;
#X connect 116 0 119 1;
#X connect 117 0 113 0;
#X connect 119 0 118 0;
#X connect 121 0 123 0;
#X connect 129 0 85 0;
#X connect 129 1 92 0;
#X connect 129 2 132 0;
#X connect 130 0 94 0;
#X connect 130 1 93 0;
#X connect 130 2 131 0;
#X connect 131 0 133 0;
#X connect 132 0 133 0;
#X connect 134 0 135 0;
#X connect 136 0 139 0;
#X connect 137 0 138 0;
#X connect 138 0 134 0;
#X connect 138 1 141 0;
#X connect 139 0 134 0;
#X connect 139 1 140 0;
#X connect 140 0 135 1;
#X connect 141 0 135 1;
#X coords 0 -1 1 1 312 118 1 100 100;
#X restore 17 28 pd clock;
#X msg 336 81 read ./6minde440.wav one;
#X msg 446 101 read ./6min120bpmclicktrack.wav one;
#X msg 506 175 read \$1 one;
#X obj 32 362 tabread~ one;
#X obj 932 118 s length;
#X obj 760 52 table one 1.67772e+07;
#X obj 760 71 table two 1.67772e+07;
#X obj 760 91 table three 1.67772e+07;
#X obj 760 111 table four 1.67772e+07;
#X obj 932 61 loadbang;
#X msg 932 80 2 24;
#X obj 932 99 pow;
#X text 931 39 max adressable length;
#X obj 620 208 adc~ 1 2;
#X obj 637 52 s~ input;
#X obj 39 162 s~ clock;
#N canvas 1195 210 441 596 record 1;
#X obj 109 121 tgl 60 0 empty empty ARM 17 10 0 10 -262144 -258113
-258113 0 1;
#X obj 321 119 r state, f 8;
#X obj 321 138 tgl 15 0 empty empty empty 17 7 0 10 -262144 -1 -1 0
1;
#X obj 279 122 r rec;
#X obj 279 141 tgl 15 0 empty empty empty 17 7 0 10 -262144 -1 -1 0
1;
#X obj 310 311 r~ clock;
#X obj 302 335 snapshot~;
#X obj 279 173 &&;
#X obj 321 156 t b f;
#X obj 279 270 &&;
#X obj 109 253 t b f;
#X obj 279 292 sel 0 1;
#X msg 302 355 start \$1;
#X msg 279 376 stop;
#X obj 169 121 vradio 15 1 0 4 empty empty empty 0 -8 0 10 -262144
-1 -1 1;
#X obj 169 422 sel 0 1 2 3;
#X text 187 121 1;
#X text 187 136 2;
#X text 187 151 3;
#X text 187 166 4;
#X obj 46 98 inlet~;
#X obj 279 402 tabwrite~;
#X msg 169 445 set one;
#X msg 186 469 set two;
#X msg 225 469 set four;
#X msg 206 445 set three;
#X connect 0 0 10 0;
#X connect 1 0 2 0;
#X connect 2 0 8 0;
#X connect 3 0 4 0;
#X connect 4 0 7 0;
#X connect 5 0 6 0;
#X connect 6 0 12 0;
#X connect 7 0 9 0;
#X connect 8 0 7 0;
#X connect 8 1 7 1;
#X connect 9 0 11 0;
#X connect 10 0 9 0;
#X connect 10 1 9 1;
#X connect 11 0 13 0;
#X connect 11 1 6 0;
#X connect 12 0 21 0;
#X connect 13 0 21 0;
#X connect 14 0 15 0;
#X connect 15 0 22 0;
#X connect 15 1 23 0;
#X connect 15 2 25 0;
#X connect 15 3 24 0;
#X connect 20 0 21 0;
#X connect 22 0 21 0;
#X connect 23 0 21 0;
#X connect 24 0 21 0;
#X connect 25 0 21 0;
#X coords 0 -1 1 1 105 90 1 100 100;
#X restore 620 236 pd record;
#N canvas 0 84 738 573 punch 0;
#X obj 113 120 hsl 128 15 0 1 0 1 punch_in punch_in_s punch_in 2 7
0 10 -262144 -1 -1 56 1;
#X obj 113 135 hsl 128 15 0 1 0 1 punch_out punch_out_s punch_out 2
7 0 10 -262144 -1 -1 4038 1;
#X obj 339 495 r punch_in;
#X obj 418 495 r punch_out;
#X msg 245 692 0;
#X msg 193 753 1;
#X msg 260 753 0;
#X obj 232 782 tgl 15 0 empty empty empty 17 7 0 10 -262144 -1 -1 0
1;
#X obj 243 120 tgl 30 0 empty empty punch 33 13 0 10 -262144 -1 -1
0 1;
#X obj 243 158 sel 0 1;
#X obj 350 467 t b b;
#X obj 418 514 f;
#X obj 198 839 print PUNCH;
#X obj 236 803 s rec;
#X obj 153 281 r~ clock;
#X obj 339 514 f;
#X obj 339 534 *;
#X obj 418 534 *;
#X obj 450 517 r length;
#X obj 192 627 >~;
#X obj 210 566 t f f;
#X obj 280 566 t f f;
#X obj 262 627 <~;
#X obj 192 683 &&~;
#X obj 193 731 threshold~ 0.5 0 0.5 0;
#X obj 243 528 unpack;
#X obj 349 651 print PUNCHTIME;
#X obj 345 596 pack;
#X obj 153 300 *~ 1;
#X floatatom 425 568 0 0 0 0 - - -;
#X obj 268 467 r length;
#X obj 243 490 pack;
#X obj 336 193 r state, f 8;
#X obj 336 212 tgl 15 0 empty empty empty 17 7 0 10 -262144 -1 -1 0
1;
#X obj 286 407 spigot;
#X obj 325 282 &&;
#X obj 336 254 t b f;
#X obj 286 385 f;
#X obj 255 214 t b b;
#X msg 287 237 1;
#X obj 325 308 sel 0 1;
#X obj 358 339 t b b;
#X msg 390 358 1;
#X msg 325 339 0;
#X obj 267 179 t b b;
#X msg 300 202 0;
#X obj 245 346 t b f;
#X obj 336 232 == 0;
#X obj 225 316 snapshot~;
#X obj 231 254 tgl 15 0 empty empty empty 17 7 0 10 -262144 -1 -1 1
1;
#X obj 231 274 metro 50;
#X obj 155 229 loadbang;
#X msg 155 251 1;
#X obj 280 429 change;
#X connect 2 0 15 0;
#X connect 3 0 11 0;
#X connect 4 0 24 1;
#X connect 5 0 7 0;
#X connect 6 0 7 0;
#X connect 7 0 12 0;
#X connect 7 0 13 0;
#X connect 8 0 9 0;
#X connect 9 0 38 0;
#X connect 9 1 44 0;
#X connect 10 0 15 0;
#X connect 10 1 11 0;
#X connect 11 0 17 0;
#X connect 14 0 28 0;
#X connect 15 0 16 0;
#X connect 16 0 20 0;
#X connect 17 0 21 0;
#X connect 17 0 29 0;
#X connect 18 0 17 1;
#X connect 18 0 16 1;
#X connect 19 0 23 0;
#X connect 20 0 19 1;
#X connect 20 1 27 0;
#X connect 21 0 22 1;
#X connect 21 1 27 1;
#X connect 22 0 23 1;
#X connect 23 0 24 0;
#X connect 24 0 5 0;
#X connect 24 1 6 0;
#X connect 25 0 20 0;
#X connect 25 1 21 0;
#X connect 27 0 26 0;
#X connect 28 0 19 0;
#X connect 28 0 22 0;
#X connect 28 0 48 0;
#X connect 30 0 31 1;
#X connect 31 0 25 0;
#X connect 32 0 33 0;
#X connect 33 0 47 0;
#X connect 34 0 53 0;
#X connect 35 0 40 0;
#X connect 36 0 35 0;
#X connect 36 1 35 1;
#X connect 37 0 34 0;
#X connect 38 1 39 0;
#X connect 39 0 35 0;
#X connect 40 0 43 0;
#X connect 40 1 41 0;
#X connect 41 0 37 0;
#X connect 41 1 42 0;
#X connect 42 0 34 1;
#X connect 43 0 34 1;
#X connect 44 0 10 0;
#X connect 44 1 45 0;
#X connect 45 0 35 0;
#X connect 46 0 37 0;
#X connect 46 1 37 1;
#X connect 47 0 36 0;
#X connect 48 0 46 0;
#X connect 49 0 50 0;
#X connect 50 0 48 0;
#X connect 51 0 52 0;
#X connect 52 0 49 0;
#X connect 53 0 31 0;
#X coords 0 -1 1 1 215 60 1 100 100;
#X restore 620 384 pd punch;
#X obj 137 215 vsl 15 128 0.001 1 1 0 empty empty empty 0 -9 0 10 -262144
-1 -1 0 1;
#X obj 122 439 *~;
#X obj 227 215 vsl 15 128 0.001 1 1 0 empty empty empty 0 -9 0 10 -262144
-1 -1 0 1;
#X obj 212 439 *~;
#X obj 317 215 vsl 15 128 0.001 1 1 0 empty empty empty 0 -9 0 10 -262144
-1 -1 0 1;
#X obj 302 439 *~;
#X obj 122 362 tabread~ two;
#X obj 212 362 tabread~ three;
#X obj 302 362 tabread~ four;
#X connect 0 0 1 0;
#X connect 3 0 4 1;
#X connect 4 0 2 0;
#X connect 4 0 2 1;
#X connect 5 0 11 0;
#X connect 6 0 5 0;
#X connect 8 0 12 0;
#X connect 8 0 24 0;
#X connect 8 0 33 0;
#X connect 8 0 34 0;
#X connect 8 0 35 0;
#X connect 9 0 0 0;
#X connect 10 0 0 0;
#X connect 11 0 0 0;
#X connect 12 0 4 0;
#X connect 18 0 19 0;
#X connect 19 0 20 0;
#X connect 20 0 13 0;
#X connect 22 0 25 0;
#X connect 22 1 25 0;
#X connect 27 0 28 1;
#X connect 28 0 2 0;
#X connect 28 0 2 1;
#X connect 29 0 30 1;
#X connect 30 0 2 0;
#X connect 30 0 2 1;
#X connect 31 0 32 1;
#X connect 32 0 2 0;
#X connect 32 0 2 1;
#X connect 33 0 28 0;
#X connect 34 0 30 0;
#X connect 35 0 32 0;
